<svg width="100%" height="100%" style="overflow:visible;" preserveAspectRatio="none" viewBox="0 0 54 54" fill="none" xmlns="http://www.w3.org/2000/svg"><path d="M50.847 50.7626C45.9686 55.6308 37.2604 54.9029 31.4245 49.0793C29.236 46.8954 27.7771 44.3476 27.0476 41.6633C26.3181 44.3476 24.8591 46.8954 22.6707 49.0793C16.8348 54.9029 8.1266 55.6763 3.24818 50.7626C-1.63025 45.849 -0.900763 37.2046 4.93511 31.3811C7.07797 29.2427 9.67675 27.7413 12.3211 27.0589C9.72235 26.3309 7.16915 24.875 4.9807 22.6912C-0.900763 16.8221 -1.67584 8.17774 3.20258 3.2641C8.08101 -1.64954 16.7892 -0.8761 22.6251 4.94748C24.8135 7.13132 26.2725 9.67913 27.002 12.2724C27.7315 9.63364 29.1904 7.04033 31.3333 4.90198C37.1692 -0.921597 45.8318 -1.64954 50.7558 3.2186C55.6798 8.08675 54.9048 16.7766 49.0689 22.6002C46.8804 24.784 44.3272 26.2399 41.6373 26.9679C44.3272 27.6958 46.8804 29.1517 49.0689 31.3356C54.9048 37.1591 55.6798 45.849 50.7558 50.7172L50.847 50.7626Z" fill="#A3F49D"/></svg>