<svg width="100%" height="100%" style="overflow:visible;" preserveAspectRatio="none" viewBox="0 -166 349 349" fill="none" xmlns="http://www.w3.org/2000/svg"><path d="M328.622 162.077C297.093 193.54 240.812 188.835 203.095 151.198C188.951 137.083 179.522 120.617 174.808 103.268C170.093 120.617 160.664 137.083 146.52 151.198C108.803 188.835 52.5219 193.834 20.9928 162.077C-10.5362 130.32 -5.8216 74.4522 31.8954 36.8146C45.7446 22.9946 62.5405 13.2911 79.631 8.88048C62.8352 4.17578 46.334 -5.23361 32.1901 -19.3477C-5.8216 -57.2793 -10.8309 -113.148 20.6982 -144.904C52.2272 -176.661 108.508 -171.662 146.225 -134.025C160.369 -119.911 169.798 -103.444 174.513 -86.6836C179.228 -103.738 188.657 -120.499 202.506 -134.319C240.223 -171.956 296.209 -176.661 328.033 -145.198C359.857 -113.736 354.847 -57.5733 317.13 -19.9358C302.987 -5.8217 286.485 3.58769 269.1 8.29239C286.485 12.9971 302.987 22.4065 317.13 36.5206C354.847 74.1581 359.857 130.32 328.033 161.783L328.622 162.077Z" fill="#A3F49D"/></svg>