<svg width="100%" height="100%" style="overflow:visible;" preserveAspectRatio="none" viewBox="0 0 36 36" fill="none" xmlns="http://www.w3.org/2000/svg"><g clip-path="url(#clip0_1471_15235)"><path d="M36 18C36 21.5601 34.9443 25.0402 32.9665 28.0003C30.9886 30.9604 28.1774 33.2675 24.8883 34.6298C21.5992 35.9922 17.98 36.3487 14.4884 35.6541C10.9967 34.9596 7.78943 33.2453 5.27209 30.7279C2.75474 28.2106 1.04041 25.0033 0.345873 21.5116C-0.348661 18.02 0.00779904 14.4008 1.37018 11.1117C2.73255 7.82263 5.03966 5.01141 7.99974 3.03355C10.9598 1.05568 14.4399 0 18 0C22.7739 0 27.3523 1.89642 30.7279 5.27208C34.1036 8.64773 36 13.2261 36 18Z" fill="#F7931A"/><path fill-rule="evenodd" clip-rule="evenodd" d="M12.7931 8.21947L16.9298 9.32729L17.8544 5.8811L19.9227 6.44238L19.0342 9.7462L20.7213 10.1995L21.6115 6.85965L23.7158 7.42256L22.8093 10.7804C22.8093 10.7804 26.2456 11.5413 27.054 14.3362C27.8624 17.1311 25.2769 18.5989 24.4784 18.6546C24.4784 18.6546 27.4893 20.3056 26.4551 23.5538C25.4209 26.802 22.2464 27.3829 18.9065 26.6384L18 30.1206L15.8956 29.5576L16.8202 26.1295L15.1511 25.6746L14.2265 29.1273L12.1385 28.566L13.0647 25.1297L8.81836 23.9842L9.88854 21.6082C9.88854 21.6082 11.0864 21.9355 11.5396 22.0435C11.9929 22.1515 12.2842 21.6802 12.4118 21.2089C12.5395 20.7376 14.4622 12.9273 14.6438 12.2842C14.8255 11.6411 14.7518 11.1387 13.9893 10.9407C13.2267 10.7427 12.1893 10.4335 12.1893 10.4335L12.7931 8.21947ZM16.9658 18.5629L15.8204 23.1169C15.8204 23.1169 21.5002 25.1673 22.2267 22.2824C22.9533 19.3975 16.9658 18.5629 16.9658 18.5629ZM17.4927 16.4029L18.6169 12.2302C18.6169 12.2302 23.4802 13.1007 22.8813 15.4227C22.2824 17.7447 19.4155 16.8546 17.4927 16.4029Z" fill="white"/></g><defs><clipPath id="clip0_1471_15235"><rect width="36" height="36" fill="white"/></clipPath></defs></svg>