<svg width="100%" height="100%" style="overflow:visible;" preserveAspectRatio="none" viewBox="0 0 36 36" fill="none" xmlns="http://www.w3.org/2000/svg"><path d="M27 9H29" stroke="#2EB3FF" stroke-width="1.5" stroke-miterlimit="10" stroke-linejoin="round"/><path d="M24 9H26" stroke="#2EB3FF" stroke-width="1.5" stroke-miterlimit="10" stroke-linejoin="round"/><path d="M21 9H23" stroke="#2EB3FF" stroke-width="1.5" stroke-miterlimit="10" stroke-linejoin="round"/><path d="M18 9H20" stroke="#2EB3FF" stroke-width="1.5" stroke-miterlimit="10" stroke-linejoin="round"/><path d="M27 12H29" stroke="#2EB3FF" stroke-width="1.5" stroke-miterlimit="10" stroke-linejoin="round"/><path d="M24 12H26" stroke="#2EB3FF" stroke-width="1.5" stroke-miterlimit="10" stroke-linejoin="round"/><path d="M21 12H23" stroke="#2EB3FF" stroke-width="1.5" stroke-miterlimit="10" stroke-linejoin="round"/><path d="M18 12H20" stroke="#2EB3FF" stroke-width="1.5" stroke-miterlimit="10" stroke-linejoin="round"/><path d="M27 15H29" stroke="#2EB3FF" stroke-width="1.5" stroke-miterlimit="10" stroke-linejoin="round"/><path d="M21 15H26" stroke="#2EB3FF" stroke-width="1.5" stroke-miterlimit="10" stroke-linejoin="round"/><path d="M18 15H20" stroke="#2EB3FF" stroke-width="1.5" stroke-miterlimit="10" stroke-linejoin="round"/><path d="M21.46 19.55L19.34 21.67L13.33 15.66L15.45 13.54L10.91 9L8.78999 11.12C6.83999 13.07 8.62999 18.03 12.8 22.2C16.97 26.37 21.93 28.16 23.88 26.21L26 24.09L21.46 19.55Z" stroke="#2EB3FF" stroke-width="1.5" stroke-miterlimit="10" stroke-linecap="round" stroke-linejoin="round"/></svg>