<svg width="100%" height="100%" style="overflow:visible;" preserveAspectRatio="none" viewBox="0 0 36 36" fill="none" xmlns="http://www.w3.org/2000/svg"><path d="M14 10V11C14 11.55 14.45 12 15 12H21C21.55 12 22 11.55 22 11V10H25C25.55 10 26 10.45 26 11V27C26 27.55 25.55 28 25 28H11C10.45 28 10 27.55 10 27V11C10 10.45 10.45 10 11 10H14Z" stroke="#2EB3FF" stroke-width="1.5" stroke-linecap="round" stroke-linejoin="round"/><path d="M21 12H15C14.45 12 14 11.55 14 11V9C14 8.45 14.45 8 15 8H21C21.55 8 22 8.45 22 9V11C22 11.55 21.55 12 21 12Z" stroke="#2EB3FF" stroke-width="1.5" stroke-linecap="round" stroke-linejoin="round"/><path d="M18 16V24" stroke="#2EB3FF" stroke-width="1.5" stroke-miterlimit="10" stroke-linejoin="round"/><path d="M22 20H14" stroke="#2EB3FF" stroke-width="1.5" stroke-miterlimit="10" stroke-linejoin="round"/></svg>