<svg width="100%" height="100%" style="overflow:visible;" preserveAspectRatio="none" viewBox="0 0 36 36" fill="none" xmlns="http://www.w3.org/2000/svg"><path d="M18 13V11C18 9.34 16.66 8 15 8H12" stroke="#FF5C25" stroke-width="1.5" stroke-linecap="round" stroke-linejoin="round"/><path d="M27.5498 17.67C27.3697 15.04 25.1986 13 22.5773 13H13.4327C10.8114 13 8.64032 15.04 8.46023 17.67L8 25.56V25.7C8 26.96 9.01051 28 10.2611 28C11.0615 28 11.7919 27.58 12.2121 26.89L13.7229 24.81C14.1131 24.3 14.7034 24 15.3337 24H20.6763C21.3067 24 21.907 24.3 22.2771 24.81L23.7879 26.89C24.2081 27.58 24.9485 28 25.7389 28C26.9895 28 28 26.96 28 25.7V25.56L27.5498 17.67Z" stroke="#FF5C25" stroke-width="1.5" stroke-linecap="round" stroke-linejoin="round"/><path d="M17 18.5H12" stroke="#FF5C25" stroke-width="1.5" stroke-linejoin="round"/><path d="M14.5 21V16" stroke="#FF5C25" stroke-width="1.5" stroke-linejoin="round"/><path d="M21 17H21.01" stroke="#FF5C25" stroke-width="1.5" stroke-miterlimit="10" stroke-linecap="round" stroke-linejoin="round"/><path d="M23 20H23.01" stroke="#FF5C25" stroke-width="1.5" stroke-miterlimit="10" stroke-linecap="round" stroke-linejoin="round"/></svg>