<svg width="100%" height="100%" style="overflow:visible;" preserveAspectRatio="none" viewBox="0 0 36 36" fill="none" xmlns="http://www.w3.org/2000/svg"><path d="M19.4757 13.9926L7.99951 25.4689L10.5239 27.9932L22.0001 16.517L19.4757 13.9926Z" stroke="#FF5C25" stroke-width="1.5" stroke-miterlimit="10" stroke-linecap="round" stroke-linejoin="round"/><path d="M19.4719 13.9999L16.6011 16.8707L19.1254 19.3951L21.9962 16.5242L19.4719 13.9999Z" stroke="#FF5C25" stroke-width="1.5" stroke-miterlimit="10" stroke-linecap="round" stroke-linejoin="round"/><path d="M27.41 8.59L26.73 10.6L28 12.3L25.88 12.27L24.65 14L24.03 11.97L22 11.35L23.73 10.12L23.7 8L25.4 9.27L27.41 8.59Z" stroke="#FF5C25" stroke-width="1.5" stroke-miterlimit="10" stroke-linecap="round" stroke-linejoin="round"/><path d="M16.5 12L17.5 8" stroke="#FF5C25" stroke-width="1.5" stroke-miterlimit="10" stroke-linecap="round" stroke-linejoin="round"/><path d="M15 9.5L19 10.5" stroke="#FF5C25" stroke-width="1.5" stroke-miterlimit="10" stroke-linecap="round" stroke-linejoin="round"/><path d="M24 19.5L28 18.5" stroke="#FF5C25" stroke-width="1.5" stroke-miterlimit="10" stroke-linecap="round" stroke-linejoin="round"/><path d="M25.5 17L26.5 21" stroke="#FF5C25" stroke-width="1.5" stroke-miterlimit="10" stroke-linecap="round" stroke-linejoin="round"/></svg>