<svg width="100%" height="100%" style="overflow:visible;" preserveAspectRatio="none" viewBox="0 0 36 36" fill="none" xmlns="http://www.w3.org/2000/svg"><path d="M19 23V28H8V8H19V13" stroke="#FF5C25" stroke-width="1.5" stroke-miterlimit="10" stroke-linecap="round" stroke-linejoin="round"/><path d="M13.5 15C14.33 15 15 14.33 15 13.5C15 12.67 14.33 12 13.5 12C12.67 12 12 12.67 12 13.5C12 14.33 12.67 15 13.5 15Z" stroke="#FF5C25" stroke-width="1.5" stroke-miterlimit="10" stroke-linecap="round" stroke-linejoin="round"/><path d="M13.5 25C14.88 25 16 23.88 16 22.5C16 21.12 14.88 20 13.5 20C12.12 20 11 21.12 11 22.5C11 23.88 12.12 25 13.5 25Z" stroke="#FF5C25" stroke-width="1.5" stroke-miterlimit="10" stroke-linecap="round" stroke-linejoin="round"/><path d="M20 19.5C20.31 19.08 20.5 18.56 20.5 18C20.5 17.44 20.31 16.92 20 16.5" stroke="#FF5C25" stroke-width="1.5" stroke-linecap="round" stroke-linejoin="round"/><path d="M22.8799 22C23.6599 20.89 24.1299 19.5 24.1299 18C24.1299 16.5 23.6599 15.11 22.8799 14" stroke="#FF5C25" stroke-width="1.5" stroke-linecap="round" stroke-linejoin="round"/><path d="M25.5 25C27.06 23.13 28 20.68 28 18C28 15.32 27.06 12.87 25.5 11" stroke="#FF5C25" stroke-width="1.5" stroke-linecap="round" stroke-linejoin="round"/></svg>