<svg width="100%" height="100%" style="overflow:visible;" preserveAspectRatio="none" viewBox="0 0 12 12" fill="none" xmlns="http://www.w3.org/2000/svg"><path d="M10 1V8.25" stroke="#25564A" stroke-miterlimit="10" stroke-linecap="round" stroke-linejoin="round"/><path d="M8.75 9.5C9.44036 9.5 10 8.94036 10 8.25C10 7.55964 9.44036 7 8.75 7C8.05964 7 7.5 7.55964 7.5 8.25C7.5 8.94036 8.05964 9.5 8.75 9.5Z" stroke="#25564A" stroke-miterlimit="10" stroke-linecap="round" stroke-linejoin="round"/><path d="M4.5 2.5V9.75" stroke="#25564A" stroke-miterlimit="10" stroke-linecap="round" stroke-linejoin="round"/><path d="M4.5 2.5L10 1" stroke="#25564A" stroke-miterlimit="10" stroke-linecap="round" stroke-linejoin="round"/><path d="M3.25 11C3.94036 11 4.5 10.4404 4.5 9.75C4.5 9.05964 3.94036 8.5 3.25 8.5C2.55964 8.5 2 9.05964 2 9.75C2 10.4404 2.55964 11 3.25 11Z" stroke="#25564A" stroke-miterlimit="10" stroke-linecap="round" stroke-linejoin="round"/></svg>