<svg width="100%" height="100%" style="overflow:visible;" preserveAspectRatio="none" viewBox="0 0 36 36" fill="none" xmlns="http://www.w3.org/2000/svg"><g clip-path="url(#clip0_1471_15299)"><path d="M18.0001 36C21.5601 36 25.0402 34.9443 28.0003 32.9665C30.9604 30.9886 33.2675 28.1774 34.6299 24.8883C35.9923 21.5992 36.3487 17.98 35.6542 14.4884C34.9597 10.9967 33.2453 7.78943 30.728 5.27209C28.2106 2.75474 25.0033 1.04041 21.5117 0.345873C18.02 -0.348661 14.4008 0.00779904 11.1118 1.37018C7.82268 2.73255 5.01147 5.03966 3.0336 7.99974C1.05574 10.9598 5.44957e-05 14.4399 5.44957e-05 18C-0.00577304 20.3654 0.455833 22.7087 1.35835 24.8952C2.26087 27.0817 3.58652 29.0683 5.25914 30.7409C6.93175 32.4135 8.91837 33.7392 11.1049 34.6417C13.2914 35.5442 15.6346 36.0058 18.0001 36Z" fill="#2775CA"/><path d="M22.9498 20.8505C22.9498 18.2323 21.3756 17.3242 18.2256 16.9494C15.974 16.65 15.5256 16.0494 15.5256 15.0005C15.5256 13.9516 16.2751 13.2742 17.774 13.2742C19.1256 13.2742 19.8751 13.7242 20.2498 14.85C20.29 14.9584 20.3626 15.0519 20.4578 15.1178C20.5529 15.1836 20.6659 15.2187 20.7816 15.2182H21.9811C22.0505 15.22 22.1197 15.2076 22.1842 15.1818C22.2487 15.1561 22.3074 15.1175 22.3565 15.0683C22.4056 15.0192 22.4443 14.9606 22.47 14.896C22.4958 14.8315 22.5081 14.7624 22.5063 14.6929V14.6193C22.3614 13.8064 21.9521 13.0641 21.3419 12.5078C20.7318 11.9515 19.9549 11.6123 19.1322 11.5429V9.74289C19.1322 9.44344 18.9063 9.21925 18.5316 9.14398H17.4058C17.1063 9.14398 16.8822 9.36816 16.8069 9.74289V11.4742C14.5503 11.7818 13.1251 13.2742 13.1251 15.1494C13.1251 17.6253 14.6256 18.6005 17.7756 18.9753C19.8751 19.35 20.5574 19.7934 20.5574 20.9994C20.5574 22.2054 19.5085 23.0253 18.0833 23.0253C16.1327 23.0253 15.4651 22.2071 15.2327 21.0747C15.2113 20.9482 15.1461 20.8332 15.0487 20.7498C14.9512 20.6664 14.8275 20.6198 14.6993 20.6182H13.418C13.3486 20.6166 13.2796 20.6291 13.2151 20.655C13.1507 20.6808 13.0922 20.7194 13.0431 20.7685C12.994 20.8176 12.9553 20.8762 12.9295 20.9406C12.9037 21.005 12.8911 21.074 12.8927 21.1434V21.2187C13.1938 23.094 14.3933 24.444 16.8691 24.8187V26.6187C16.8691 26.9182 17.0933 27.144 17.468 27.2193H18.5938C18.8933 27.2193 19.1191 26.9934 19.1927 26.6187V24.8187C21.4427 24.444 22.9433 22.8682 22.9433 20.844L22.9498 20.8505Z" fill="white"/><path d="M14.1742 28.7247C12.0162 27.9332 10.1532 26.4982 8.83716 24.6136C7.52108 22.7291 6.81535 20.4859 6.81535 18.1873C6.81535 15.8888 7.52108 13.6456 8.83716 11.7611C10.1532 9.87653 12.0162 8.44151 14.1742 7.64998C14.3182 7.58771 14.4391 7.48199 14.5201 7.34762C14.6011 7.21325 14.638 7.05694 14.6258 6.90053V5.84998C14.6359 5.71218 14.5957 5.5754 14.5127 5.46497C14.4296 5.35454 14.3094 5.27797 14.1742 5.24944C14.0686 5.23843 13.9625 5.26509 13.8747 5.32471C11.1443 6.19256 8.76089 7.90676 7.06945 10.2192C5.37801 12.5316 4.46631 15.3223 4.46631 18.1873C4.46631 21.0524 5.37801 23.8431 7.06945 26.1555C8.76089 28.4679 11.1443 30.1821 13.8747 31.05C13.9371 31.0862 14.0071 31.1071 14.0792 31.1111C14.1512 31.115 14.2231 31.1018 14.289 31.0726C14.3549 31.0434 14.413 30.999 14.4585 30.943C14.5039 30.887 14.5355 30.8211 14.5505 30.7505C14.6258 30.6753 14.6258 30.6 14.6258 30.4494V29.4005C14.6258 29.1747 14.4 28.8753 14.1742 28.7247ZM22.1253 5.32471C22.0628 5.28849 21.9926 5.2676 21.9205 5.26376C21.8484 5.25992 21.7764 5.27324 21.7105 5.30263C21.6445 5.33201 21.5864 5.37663 21.5411 5.43281C21.4957 5.48899 21.4643 5.55513 21.4495 5.6258C21.3758 5.69944 21.3758 5.77471 21.3758 5.92526V6.97416C21.3885 7.12542 21.4356 7.27177 21.5136 7.40197C21.5916 7.53217 21.6984 7.64277 21.8258 7.72526C23.9838 8.51679 25.8468 9.9518 27.1629 11.8363C28.4789 13.7209 29.1847 15.964 29.1847 18.2626C29.1847 20.5612 28.4789 22.8044 27.1629 24.6889C25.8468 26.5734 23.9838 28.0085 21.8258 28.8C21.682 28.8623 21.5613 28.9681 21.4806 29.1025C21.3999 29.2369 21.3632 29.3932 21.3758 29.5494V30.6C21.3657 30.7376 21.4056 30.8742 21.4883 30.9845C21.5711 31.0949 21.6909 31.1717 21.8258 31.2005C21.9314 31.2115 22.0375 31.1849 22.1253 31.1253C24.8546 30.2454 27.2346 28.5226 28.9229 26.2045C30.6111 23.8864 31.5207 21.0927 31.5207 18.225C31.5207 15.3573 30.6111 12.5635 28.9229 10.2455C27.2346 7.92742 24.8546 6.20456 22.1253 5.32471Z" fill="white"/></g><defs><clipPath id="clip0_1471_15299"><rect width="36" height="36" fill="white"/></clipPath></defs></svg>