<svg width="100%" height="100%" style="overflow:visible;" preserveAspectRatio="none" viewBox="0 0 77 73" fill="none" xmlns="http://www.w3.org/2000/svg"><path opacity="0.3" d="M69.3153 0C66.2422 0 63.5888 4.97447 62.3596 12.166C60.9735 8.43405 59.0788 6.13192 56.9892 6.13192C53.9161 6.13192 51.2627 11.1064 50.0335 18.2979C48.6474 14.566 46.7527 12.2638 44.6631 12.2638C41.59 12.2638 38.9366 17.2383 37.7074 24.4298C36.3213 20.6979 34.4266 18.3957 32.337 18.3957C29.2639 18.3957 26.6105 23.3702 25.3813 30.5617C23.9952 26.8298 22.1005 24.5277 20.0108 24.5277C16.9378 24.5277 14.2844 29.5021 13.0552 36.6936C11.6691 32.9617 9.77443 30.6596 7.68475 30.6596C3.44183 30.6596 0 40.1362 0 51.8298C0 63.5234 3.44183 73 7.68475 73C10.7578 73 13.4112 68.0255 14.6404 60.834C16.0265 64.566 17.9212 66.8681 20.0108 66.8681C23.0839 66.8681 25.7373 61.8936 26.9665 54.7021C28.3526 58.434 30.2473 60.7362 32.337 60.7362C35.41 60.7362 38.0634 55.7617 39.2926 48.5702C40.6787 52.3021 42.5734 54.6043 44.6631 54.6043C47.7361 54.6043 50.3895 49.6298 51.6187 42.4383C53.0048 46.1702 54.8995 48.4723 56.9892 48.4723C60.0622 48.4723 62.7156 43.4979 63.9448 36.3064C65.3309 40.0383 67.2256 42.3404 69.3153 42.3404C73.5582 42.3404 77 32.8638 77 21.1702C77 9.4766 73.5624 0 69.3153 0Z" fill="#FFCC00"/></svg>