<svg width="63" height="63" viewBox="0 0 63 63" fill="none" xmlns="http://www.w3.org/2000/svg">
<path opacity="0.3" d="M63 31.5C63 33.5099 60.2157 35.2398 59.8368 37.1344C59.4414 39.0949 61.3525 41.7474 60.6111 43.5596C59.8533 45.4048 56.6242 45.9155 55.5204 47.5465C54.4166 49.194 55.1579 52.3737 53.7741 53.7741C52.3737 55.1744 49.194 54.4166 47.5466 55.5204C45.9155 56.6077 45.3883 59.8368 43.5596 60.6111C41.7474 61.3525 39.1114 59.4579 37.1344 59.8368C35.2233 60.2157 33.5099 63 31.5 63C29.4901 63 27.7602 60.2157 25.8656 59.8368C23.9051 59.4414 21.2526 61.3525 19.4404 60.6111C17.5952 59.8533 17.0845 56.6242 15.4535 55.5204C13.806 54.4166 10.6263 55.1579 9.22594 53.7741C7.82557 52.3737 8.58342 49.194 7.47961 47.5465C6.39226 45.9155 3.16318 45.3883 2.38886 43.5596C1.64749 41.7474 3.5421 39.1114 3.16318 37.1344C2.78426 35.2233 0 33.5099 0 31.5C0 29.4901 2.78426 27.7602 3.16318 25.8656C3.55858 23.9051 1.64749 21.2526 2.38886 19.4404C3.1467 17.5952 6.37579 17.0845 7.47961 15.4534C8.58342 13.806 7.84205 10.6263 9.22594 9.22594C10.6263 7.82558 13.806 8.58342 15.4535 7.4796C17.0845 6.39226 17.6117 3.16318 19.4404 2.38886C21.2526 1.64749 23.8886 3.5421 25.8656 3.16318C27.7767 2.78425 29.4901 0 31.5 0C33.5099 0 35.2398 2.78425 37.1344 3.16318C39.0949 3.55857 41.7474 1.64749 43.5596 2.38886C45.4048 3.1467 45.9155 6.37578 47.5466 7.4796C49.194 8.58342 52.3737 7.84205 53.7741 9.22594C55.1744 10.6263 54.4166 13.806 55.5204 15.4534C56.6077 17.0845 59.8368 17.6117 60.6111 19.4404C61.3525 21.2526 59.4579 23.8886 59.8368 25.8656C60.2157 27.7767 63 29.4901 63 31.5Z" fill="#2EB3FF"/>
</svg>
