<svg width="100%" height="100%" style="overflow:visible;" preserveAspectRatio="none" viewBox="0 0 36 36" fill="none" xmlns="http://www.w3.org/2000/svg"><g clip-path="url(#clip0_1471_15251)"><path d="M18 36C27.9411 36 36 27.9411 36 18C36 8.05887 27.9411 0 18 0C8.05887 0 0 8.05887 0 18C0 27.9411 8.05887 36 18 36Z" fill="#FF6600"/><path d="M17.9664 5.88971C24.6995 5.88971 30.1445 11.3347 30.1445 18.0667C30.14 19.3787 29.9281 20.6818 29.5168 21.9277H25.8875V11.697L17.9675 19.617L10.0475 11.697V21.9277H6.41715C6.00621 20.6817 5.79472 19.3787 5.79053 18.0667C5.79053 11.3347 11.2355 5.88971 17.9675 5.88971H17.9664ZM16.1529 21.3978L18.0002 23.2147L19.8148 21.399L23.2472 17.934V24.369H28.3625C27.2775 26.1535 25.7511 27.6284 23.9303 28.6514C22.1096 29.6745 20.056 30.2113 17.9675 30.21C13.5778 30.21 9.71678 27.8677 7.57253 24.369H12.6868V17.934L16.1518 21.399L16.1529 21.3978Z" fill="white"/></g><defs><clipPath id="clip0_1471_15251"><rect width="36" height="36" fill="white"/></clipPath></defs></svg>